# xmcd
#
# Track frame offsets: 
#        150
#        18318
#        36918
#        55744
#        75320
#        93020
#        111081
#        132068
#        153069
#        174520
#        191697
#        210822
#        232085
#        248998
#
# Disc length: 3572 seconds
#
# Revision: 3
# Processed by: cddbd v1.5.2PL0 Copyright (c) Steve Scherf et al.
# Submitted via: ExactAudioCopyFreeDBPlugin 1.0
#
DISCID=a00df20e
DTITLE=Sin Bandera - Canciones de amor
DYEAR=2012
DGENRE=Balada
TTITLE0=Amor real
TTITLE1=Entra en mi vida
TTITLE2=La razón eres tú (Look what you make me do) (dúo con Brian McK
TTITLE2=night)
TTITLE3=Love is in the air
TTITLE4=Contigo
TTITLE5=Que lloro
TTITLE6=Cuando ya no te esperaba
TTITLE7=Tócame
TTITLE8=Si tú no vuelves
TTITLE9=Que me alcance la vida
TTITLE10=Solo
TTITLE11=Un buen perdedor
TTITLE12=Si tú no estás aquí
TTITLE13=Mis impulsos sobre ti
EXTD=
EXTT0=
EXTT1=
EXTT2=
EXTT3=
EXTT4=
EXTT5=
EXTT6=
EXTT7=
EXTT8=
EXTT9=
EXTT10=
EXTT11=
EXTT12=
EXTT13=
PLAYORDER=
